# xmcd
#
# Track frame offsets:
#	150
#	6905
#	21583
#	35127
#	48213
#	67029
#	85039
#	107369
#	127785
#	146127
#	162017
#	178680
#	185617
#	203585
#	219365
#	234167
#	243697
#	257542
#	261932
#	277328
#	293780
#
# Disc length: 4126 seconds
#
# Revision: 1
# Processed by: cddbd v1.5.1PL0 Copyright (c) Steve Scherf et al.
# Submitted via: CDex 1.50Beta5
#
DISCID=31101c15
DTITLE=ハム太郎 - とっとこハム太郎 ベストソングコレクション
DYEAR=2002
DGENRE=Music
TTITLE0=ハムちゃんず/ハム太郎とっとこうた つづきでちゅ
TTITLE1=ハムちゃんず ちーず!/いつもハム&ちーず
TTITLE2=ハムちゃんず・ひまわり組/それゆけ!ひまわり組
TTITLE3=ハムちゃんず どんぐり隊/どんどんぐりぐり,どんぐりドン!
TTITLE4=ハム太郎,タイショーくん,こうしくん/木の実のプレゼント
TTITLE5=ハムチャンズ ちーず!/らぶ?らぶアタック大作戦
TTITLE6=MMぼーいず/ぼくらライバル!MMぼーいず
TTITLE7=ハムチャンズ/ハッピーハムハムバースデイ
TTITLE8=ハムちゃんず・ひまわり組/メリーとっとこクリスマス
TTITLE9=team le tao/200%のジュモン
TTITLE10=ハムちゃんず/てをつなごう
TTITLE11=ハムちゃんず/ハム太郎とっとこうた
TTITLE12=こうしくん/ぼくのタネ,しりませんか?
TTITLE13=マフラーちゃん/マフラーがいっぱい
TTITLE14=タイショーくん/のらハム行進曲
TTITLE15=ハム太郎/てちてちまーち
TTITLE16=いはたじゅり/ふしぎなハム太郎
TTITLE17=いはたじゅり/ハム太郎 絵かきうた
TTITLE18=トラハムちゃんとトラハムくん/なかよしくるるん
TTITLE19=トンガリくん/風の歌をうたおう
TTITLE20=ロコちゃん/あしたもあそぼう
EXTD=
EXTT0=
EXTT1=
EXTT2=
EXTT3=
EXTT4=
EXTT5=
EXTT6=
EXTT7=
EXTT8=
EXTT9=
EXTT10=
EXTT11=
EXTT12=
EXTT13=
EXTT14=
EXTT15=
EXTT16=
EXTT17=
EXTT18=
EXTT19=
EXTT20=
PLAYORDER=
